<svg width="126" height="42" viewBox="0 0 126 42" fill="none" xmlns="http://www.w3.org/2000/svg">
<path d="M2.7781 32.3802C1.63599 31.5004 0.910598 30.8248 0.601921 30.3535C0.293243 29.8507 0.108037 29.2537 0.0463015 28.5625C-0.0154338 27.9969 -0.0154338 27.227 0.0463015 26.2529C0.138905 25.2789 0.246942 24.3205 0.370413 23.3778C0.493883 22.4352 0.601921 21.7282 0.694524 21.2569C0.848862 21.0998 0.910598 20.8955 0.87973 20.6441C0.87973 20.3614 0.87973 20.22 0.87973 20.22C0.848862 20.0628 0.956899 19.6544 1.20384 18.9945C1.45078 18.3032 1.68229 17.4234 1.89836 16.3551C2.51572 14.4698 3.10221 12.8987 3.65783 11.6418C4.24431 10.3535 4.81537 9.25373 5.37098 8.3425C5.9266 7.43126 6.48222 6.59859 7.03784 5.84446C8.30342 4.52475 9.32205 3.53496 10.0937 2.8751C10.8654 2.18382 11.7297 1.61823 12.6866 1.17832C13.304 0.801258 13.875 0.50275 14.3998 0.282798C14.9245 0.0628447 15.3567 0.0314224 15.6962 0.188531C17.4248 0.565594 18.7213 1.2883 19.5856 2.35664C20.4499 3.39356 21.0827 5.01178 21.4839 7.21131C21.7 8.59387 21.8235 9.85075 21.8543 10.9819C21.9161 12.0817 21.8389 13.1815 21.6228 14.2812C21.4068 15.3496 21.0055 16.5279 20.419 17.8162C19.8634 19.1045 19.0763 20.6127 18.0576 22.3409C16.9772 24.509 15.758 26.3943 14.3998 27.9969C13.0725 29.5994 11.6989 30.8562 10.279 31.7675C8.8899 32.7101 7.53173 33.2443 6.20441 33.37C4.90797 33.4957 3.76586 33.1657 2.7781 32.3802ZM5.7414 31.0134C6.45135 30.9191 7.13044 30.6991 7.77867 30.3535C8.42689 30.0079 9.10598 29.5051 9.81594 28.8452C10.5259 28.154 11.3285 27.2899 12.2236 26.2529C13.0262 25.3103 13.6744 24.5247 14.1683 23.8963C14.693 23.2365 15.1252 22.5766 15.4647 21.9167C15.8351 21.2569 16.1747 20.4556 16.4834 19.513C16.8229 18.5703 17.2088 17.3449 17.6409 15.8366C17.8878 14.894 18.0731 14.1084 18.1965 13.48C18.32 12.8515 18.3972 12.2702 18.428 11.7361C18.4589 11.1705 18.4589 10.5263 18.428 9.80361C18.428 9.08091 18.428 8.15397 18.428 7.02278C18.3972 6.48861 18.2891 5.93873 18.1039 5.37314C17.9187 4.77612 17.7026 4.33621 17.4557 4.05342C17.147 3.70778 16.7149 3.47212 16.1593 3.34643C15.6036 3.18932 14.9863 3.26787 14.3072 3.58209C13.9368 3.7392 13.4583 4.10055 12.8718 4.66614C12.2854 5.20032 11.668 5.82875 11.0198 6.55146C10.3716 7.27416 9.7542 8.01257 9.16771 8.76669C8.61209 9.52082 8.14908 10.1964 7.77867 10.7934C7.43912 11.359 7.26935 11.7518 7.26935 11.9717C7.26935 11.9717 7.25392 12.0503 7.22305 12.2074C7.22305 12.3645 7.16131 12.5216 7.03784 12.6787C6.63656 13.1186 6.18898 13.9042 5.6951 15.0353C5.23208 16.1665 4.7845 17.4548 4.35235 18.9002C3.9202 20.3142 3.54979 21.7282 3.24111 23.1422C2.9633 24.5247 2.79353 25.7345 2.73179 26.7714C2.67006 27.6198 2.63919 28.2011 2.63919 28.5153C2.63919 28.8295 2.70093 29.0809 2.8244 29.2694C2.94787 29.4266 3.14851 29.7408 3.42632 30.2121C3.61152 30.5263 3.9202 30.762 4.35235 30.9191C4.81536 31.0762 5.27838 31.1076 5.7414 31.0134Z" fill="#48A5C9"/>
<path d="M20.9218 41.9953C20.7983 41.9953 20.644 41.9953 20.4588 41.9953C20.2736 42.0267 20.1038 41.901 19.9495 41.6182C19.826 41.4611 19.7488 41.2255 19.718 40.9112C19.718 40.597 19.7951 40.0314 19.9495 39.2145C20.1038 38.6803 20.2273 38.1461 20.3199 37.6119C20.4125 37.1092 20.4588 36.7321 20.4588 36.4808C20.4588 36.3551 20.4897 36.1037 20.5514 35.7266C20.644 35.381 20.6903 35.1296 20.6903 34.9725C20.8446 34.7211 20.9681 34.3755 21.0607 33.9356C21.1533 33.4957 21.1996 33.1029 21.1996 32.7573C21.1996 32.3802 21.3848 32.0346 21.7552 31.7203C21.7552 31.469 21.8015 31.1548 21.8941 30.7777C22.0176 30.4006 22.0793 30.1493 22.0793 30.0236C22.1719 29.5837 22.3726 28.8138 22.6813 27.7141C23.0208 26.5829 23.4221 25.3103 23.8851 23.8963C24.379 22.4823 24.8574 21.0998 25.3205 19.7486C25.7835 18.3975 26.2002 17.2506 26.5706 16.3079C26.941 15.4281 27.188 14.674 27.3114 14.0456C27.4658 13.3857 27.5429 12.8987 27.5429 12.5844C27.5429 12.4588 27.5738 12.3645 27.6355 12.3017C27.6973 12.2074 27.8362 12.0346 28.0522 11.7832C28.3609 11.469 28.6233 11.3747 28.8394 11.5004C29.0863 11.6261 29.3796 11.8146 29.7191 12.066C29.966 12.4745 30.1358 12.8201 30.2284 13.1029C30.3519 13.3857 30.3519 13.8727 30.2284 14.564C30.2284 15.0354 30.1513 15.4438 29.9969 15.7895C29.8426 16.1351 29.7037 16.4022 29.5802 16.5907C29.4567 16.7478 29.4259 16.8107 29.4876 16.7793C30.7532 16.1822 31.8644 15.868 32.8213 15.8366C33.8091 15.7738 34.6271 15.9466 35.2753 16.3551C35.9544 16.7321 36.4637 17.2663 36.8032 17.9576C37.1428 18.6489 37.3126 19.4501 37.3126 20.3614C37.3126 20.7384 37.2354 21.194 37.0811 21.7282C36.9267 22.2309 36.7261 22.7023 36.4791 23.1422C36.2631 23.5507 36.0624 23.8492 35.8772 24.0377C35.7537 24.0377 35.6303 24.1477 35.5068 24.3676C35.3833 24.5562 35.2599 24.7761 35.1364 25.0275C34.8895 25.3417 34.4882 25.7031 33.9325 26.1115C33.4078 26.4886 32.883 26.8028 32.3583 27.0542C31.8335 27.2742 31.4477 27.337 31.2008 27.2427C31.2008 27.2427 31.1545 27.2584 31.0619 27.2899C31.0001 27.2899 30.9693 27.3684 30.9693 27.5255C30.9693 27.5884 30.7223 27.7298 30.2284 27.9497C29.7345 28.1383 29.1635 28.3268 28.5153 28.5153C27.867 28.6724 27.296 28.751 26.8021 28.751C26.1539 28.751 25.6909 28.6253 25.4131 28.3739C25.3513 28.4368 25.2742 28.531 25.1816 28.6567C25.1198 28.7824 25.0889 28.8924 25.0889 28.9866C25.0889 29.1752 25.0118 29.5365 24.8574 30.0707C24.734 30.5735 24.5796 31.0605 24.3944 31.5318C24.2092 32.0031 24.0394 32.2388 23.8851 32.2388C23.8851 32.2388 23.8542 32.2859 23.7925 32.3802C23.7308 32.4745 23.7616 32.6002 23.8851 32.7573C23.8851 32.7573 23.8697 32.9301 23.8388 33.2757C23.8388 33.6528 23.7616 33.967 23.6073 34.2184C23.6073 34.4698 23.561 34.8468 23.4684 35.3496C23.3758 35.8523 23.2678 36.2294 23.1443 36.4808C23.1443 36.8578 23.0825 37.2192 22.9591 37.5648C22.8665 37.9419 22.7584 38.1304 22.635 38.1304C22.5115 38.1618 22.4343 38.3504 22.4035 38.696C22.3726 39.0731 22.3572 39.3401 22.3572 39.4972C22.3263 40.2828 22.1719 40.8955 21.8941 41.3354C21.6163 41.7753 21.2922 41.9953 20.9218 41.9953ZM26.5243 26.2529C26.7712 26.2529 27.2806 26.143 28.0522 25.923C28.8239 25.7031 29.6111 25.436 30.4136 25.1218C31.2471 24.7761 31.8644 24.4305 32.2657 24.0848C33.0683 23.3621 33.6856 22.5452 34.1178 21.6339C34.5808 20.6913 34.5499 19.7958 34.0252 18.9474C33.7782 18.5075 33.3306 18.3346 32.6824 18.4289C32.0342 18.4918 31.3242 18.7431 30.5525 19.183C29.7808 19.6229 29.0555 20.1728 28.3764 20.8327C28.0059 21.2412 27.6664 21.7439 27.3577 22.3409C27.049 22.9379 26.7867 23.535 26.5706 24.132C26.3854 24.729 26.2774 25.2317 26.2465 25.6402C26.2156 26.0487 26.3082 26.2529 26.5243 26.2529Z" fill="#48A5C9"/>
<path d="M48.3754 29.7879C47.7272 30.3535 46.9709 30.6834 46.1066 30.7777C45.2732 30.872 44.4552 30.7463 43.6526 30.4006C42.8501 30.0236 42.1864 29.458 41.6617 28.7038C41.1369 28.0126 40.7974 27.227 40.643 26.3472C40.4887 25.436 40.4733 24.2577 40.5967 22.8123C40.6893 21.5868 41.0752 20.3614 41.7543 19.1359C42.4334 17.879 43.2513 16.7636 44.2082 15.7895C45.196 14.8154 46.1684 14.1398 47.1252 13.7628C47.5883 13.4485 47.9741 13.3071 48.2828 13.3386C48.6223 13.3386 49.1316 13.37 49.8107 13.4328C50.5207 13.5271 51.0454 13.6685 51.385 13.857C51.7554 14.0456 52.0486 14.2969 52.2647 14.6112C52.7277 15.0825 53.0364 15.5538 53.1908 16.0251C53.3451 16.465 53.4223 16.9049 53.4223 17.3449C53.2988 18.0361 52.8358 18.8845 52.0332 19.89C51.2615 20.8641 50.2429 21.6654 48.9773 22.2938C48.2982 22.5137 47.5574 22.608 46.7548 22.5766C45.9523 22.5452 45.2886 22.3409 44.7639 21.9639C44.1774 21.7125 43.7915 21.7596 43.6063 22.1053C43.4211 22.4195 43.2513 23.205 43.097 24.4619C42.9735 25.6559 43.0661 26.5357 43.3748 27.1013C43.6835 27.6355 44.1002 27.9497 44.625 28.044C45.2423 28.1697 45.7208 28.2639 46.0603 28.3268C46.4307 28.3582 46.8783 28.2168 47.4031 27.9026C47.8969 27.5884 48.2056 27.4156 48.3291 27.3841C48.4526 27.3213 48.5452 27.2584 48.6069 27.1956C48.6995 27.1013 48.9001 26.8971 49.2088 26.5829C49.4249 26.3629 49.5947 26.2058 49.7181 26.1115C49.8416 25.9859 49.9805 25.923 50.1348 25.923C50.2892 25.923 50.4281 26.0016 50.5516 26.1587C50.675 26.2844 50.7985 26.3786 50.922 26.4415C51.2307 26.4415 51.2924 26.63 51.1072 27.0071C50.9528 27.3841 50.6287 27.8397 50.1348 28.3739C49.641 28.8767 49.0545 29.348 48.3754 29.7879ZM48.3291 19.7958C48.6686 19.6386 49.0236 19.4187 49.394 19.1359C49.7644 18.8217 50.0731 18.4918 50.3201 18.1461C50.5979 17.7691 50.7368 17.4548 50.7368 17.2035C50.7368 16.7636 50.5361 16.4022 50.1348 16.1194C49.7336 15.8052 49.1316 15.7581 48.3291 15.978C47.9895 16.0723 47.6037 16.3079 47.1715 16.685C46.7394 17.0306 46.3227 17.4234 45.9214 17.8633C45.551 18.3032 45.2423 18.696 44.9954 19.0416C44.7793 19.3873 44.7021 19.5915 44.7639 19.6544C44.8565 19.8115 45.1188 19.9372 45.551 20.0314C45.9831 20.0943 46.4616 20.11 46.9863 20.0786C47.542 20.0471 47.9895 19.9529 48.3291 19.7958Z" fill="#48A5C9"/>
<path d="M69.6369 30.872C69.3282 30.872 69.0041 30.6991 68.6645 30.3535C68.3559 30.0079 68.078 29.5837 67.8311 29.0809C67.615 28.5467 67.507 28.044 67.507 27.5727C67.507 27.1013 67.615 26.2215 67.8311 24.9332C68.078 23.6449 68.3713 22.3409 68.7108 21.0212C68.9578 20.2042 69.0349 19.7329 68.9423 19.6072C68.8497 19.4815 68.433 19.6544 67.6922 20.1257C67.26 20.3456 66.8742 20.5813 66.5347 20.8327C66.1951 21.0526 65.9019 21.304 65.6549 21.5868C65.5006 21.7125 65.2691 21.9167 64.9604 22.1995C64.6517 22.4823 64.3276 22.7494 63.9881 23.0008C63.5868 23.315 63.0775 23.7549 62.4601 24.3205C61.8428 24.8861 61.2254 25.4517 60.6081 26.0173C60.0216 26.5829 59.574 27.0228 59.2653 27.337C59.2036 27.4627 59.111 27.5727 58.9875 27.6669C58.864 27.7612 58.7251 27.824 58.5708 27.8555C58.4164 27.8555 58.2467 27.824 58.0615 27.7612C57.7219 27.6669 57.3978 27.4627 57.0891 27.1485C56.8113 26.8343 56.6724 26.4729 56.6724 26.0644C56.6724 25.7502 56.7959 25.216 57.0428 24.4619C57.2898 23.6764 57.6139 22.7337 58.0152 21.6339C58.4473 20.5342 58.9412 19.3716 59.4968 18.1461C59.5894 17.989 59.6666 17.8005 59.7283 17.5805C59.7901 17.3291 59.8364 17.0621 59.8672 16.7793C59.929 16.4965 59.9598 16.2294 59.9598 15.978C59.9598 15.8209 59.9753 15.6638 60.0061 15.5067C60.0679 15.3181 60.1296 15.1453 60.1913 14.9882C60.2839 14.7997 60.3611 14.674 60.4228 14.6112C60.5463 14.3598 60.7624 14.2969 61.0711 14.4226C61.3797 14.5169 61.6421 14.7368 61.8582 15.0825C62.3212 15.5224 62.5527 16.0723 62.5527 16.7321C62.5836 17.392 62.4292 18.209 62.0897 19.183C61.9662 19.403 61.8582 19.6229 61.7656 19.8429C61.7039 20.0314 61.6421 20.2042 61.5804 20.3614C61.5187 20.487 61.4724 20.597 61.4415 20.6913C61.4106 20.7541 61.3952 20.7855 61.3952 20.7855C61.5187 20.7855 61.7965 20.6441 62.2286 20.3614C62.6608 20.0786 63.1701 19.7643 63.7566 19.4187C64.2196 19.0731 64.6208 18.7588 64.9604 18.476C65.3308 18.1618 65.6395 17.9262 65.8864 17.7691C66.1334 17.5805 66.2877 17.4863 66.3494 17.4863C66.4729 17.4863 66.6273 17.4391 66.8125 17.3449C66.9977 17.2506 67.152 17.1406 67.2755 17.0149C67.399 16.8892 67.4916 16.8264 67.5533 16.8264C67.6459 16.795 67.6922 16.7793 67.6922 16.7793C67.6922 16.7793 67.7539 16.7793 67.8774 16.7793C68.0009 16.7478 68.1243 16.6693 68.2478 16.5436C68.4948 16.3551 68.8189 16.3079 69.2201 16.4022C69.6214 16.465 69.9918 16.6222 70.3314 16.8735C70.6709 17.1249 70.8407 17.4077 70.8407 17.7219C70.8407 17.8476 70.8716 17.9576 70.9333 18.0518C71.0259 18.1147 71.0722 18.1461 71.0722 18.1461C71.3192 18.1461 71.4735 18.5389 71.5352 19.3244C71.6278 20.11 71.5507 20.8641 71.3037 21.5868C71.3037 22.0581 71.2111 22.6237 71.0259 23.2836C70.8716 23.9434 70.7327 24.5719 70.6092 25.1689C70.3623 25.9544 70.1925 26.6457 70.0999 27.2427C70.0073 27.8398 69.9918 28.3425 70.0536 28.751C70.1153 29.1595 70.2234 29.4894 70.3777 29.7408C70.5012 29.9607 70.5012 30.2121 70.3777 30.4949C70.2542 30.7463 70.0073 30.872 69.6369 30.872Z" fill="#48A5C9"/>
<path d="M77.9802 34.2655C77.8567 34.5797 77.6252 34.7526 77.2857 34.784C76.977 34.8154 76.5603 34.6269 76.0355 34.2184C75.6651 33.8413 75.4182 33.5428 75.2947 33.3229C75.2021 33.1343 75.2638 32.7887 75.4799 32.2859C75.696 31.8146 76.0664 30.9662 76.5911 29.7408C76.7146 28.9866 76.9307 28.2325 77.2394 27.4784C77.548 26.6929 77.7795 26.143 77.9339 25.8288C78.0574 25.3888 78.3043 24.6661 78.6747 23.6606C79.076 22.6237 79.5236 21.4768 80.0175 20.22C80.5422 18.9631 81.0361 17.7848 81.4991 16.685C81.9621 15.5538 82.3017 14.7054 82.5177 14.1398C83.0425 12.883 83.5827 11.5632 84.1383 10.1807C84.6939 8.79811 85.4502 7.0542 86.4071 4.94894C86.5305 4.63472 86.5923 4.30479 86.5923 3.95915C86.6232 3.61351 86.3762 3.44069 85.8515 3.44069C85.5428 3.09505 85.373 2.74941 85.3421 2.40377C85.3113 2.02671 85.4656 1.75962 85.8052 1.60252L88.2128 0.612726C89.6636 0.267087 91.1453 0.172822 92.6578 0.329931C94.2012 0.455618 95.652 0.879813 97.0101 1.60252C98.4918 2.48233 99.5413 3.37785 100.159 4.28908C100.776 5.16889 101.085 6.06441 101.085 6.97565C101.116 7.88688 100.961 8.7824 100.622 9.66222C100.375 10.3221 99.8963 11.0448 99.1863 11.8303C98.5072 12.6159 97.7047 13.4014 96.7786 14.187C95.8835 14.9725 94.942 15.6952 93.9542 16.3551C92.9973 16.9835 92.1022 17.4705 91.2687 17.8162C90.497 18.1932 89.6945 18.5232 88.8611 18.806C88.0276 19.0888 87.1633 19.3716 86.2682 19.6544C85.7743 19.78 85.1878 19.8429 84.5087 19.8429C83.8296 19.8429 83.3203 19.78 82.9808 19.6544L82.1936 21.8696C81.885 23.0008 81.3448 24.6819 80.5731 26.9128C79.8323 29.1438 78.968 31.5947 77.9802 34.2655ZM96.3619 34.784C96.115 34.8782 95.8217 34.9097 95.4822 34.8782C95.1735 34.8468 94.6642 34.5954 93.9542 34.1241C92.5961 33.3072 91.2379 32.3174 89.8797 31.1548C88.5215 29.9921 86.9936 28.4211 85.2958 26.4415C84.6476 25.6559 84.092 24.9332 83.629 24.2734C83.1968 23.6135 82.7338 22.6866 82.2399 21.4925L81.5917 18.9474L82.8419 18.2404L84.5087 19.9372C85.0026 21.0369 85.6354 22.0896 86.4071 23.0951C87.2096 24.1005 87.9505 24.9961 88.6296 25.7816C89.1852 26.4415 89.9414 27.2427 90.8983 28.1854C91.8552 29.0966 92.8739 29.9764 93.9542 30.8248C95.0346 31.6732 96.0069 32.3174 96.8712 32.7573C97.0564 32.9144 97.1182 33.15 97.0564 33.4643C96.9947 33.7785 96.8867 34.0613 96.7323 34.3126C96.6089 34.5954 96.4854 34.7526 96.3619 34.784ZM84.4161 17.2506C85.1261 17.1877 85.9595 17.0149 86.9164 16.7321C87.8733 16.4179 88.8302 16.0566 89.7871 15.6481C90.6823 15.2082 91.6237 14.6897 92.6115 14.0927C93.6301 13.4643 94.5716 12.773 95.4359 12.0189C96.3002 11.2647 96.9947 10.4792 97.5195 9.66222C98.0751 8.84525 98.322 8.02828 98.2603 7.21131C98.2603 6.80283 98.1059 6.37863 97.7973 5.93873C97.4886 5.49882 97.1182 5.10605 96.686 4.76041C96.2539 4.41477 95.8372 4.17911 95.4359 4.05342C94.2012 3.7392 93.1825 3.53496 92.38 3.44069C91.5774 3.34643 90.9601 3.40927 90.5279 3.62922C90.0958 3.81775 89.8025 4.22624 89.6482 4.85468C89.6482 4.94894 89.5247 5.26316 89.2778 5.79733C89.0308 6.3315 88.7222 6.99136 88.3517 7.77691C88.0122 8.56245 87.6727 9.39513 87.3331 10.2749C86.4379 12.1288 85.7589 13.5428 85.2958 14.5169C84.8328 15.4595 84.5396 16.1194 84.4161 16.4965C84.2926 16.8735 84.2926 17.1249 84.4161 17.2506Z" fill="#48A5C9"/>
<path d="M107.155 33.1343C105.982 33.1343 104.902 32.9301 103.914 32.5216C102.957 32.1131 102.355 31.2333 102.108 29.8822C102.139 29.1909 102.17 28.751 102.201 28.5625C102.263 28.3739 102.386 28.2797 102.571 28.2797C102.695 28.2797 102.787 28.2639 102.849 28.2325C102.942 28.1697 102.988 28.0283 102.988 27.8083C103.019 27.337 103.096 26.7714 103.22 26.1115C103.343 25.4203 103.497 24.7761 103.683 24.1791C103.868 23.5507 104.038 23.1108 104.192 22.8594C104.346 22.2624 104.578 21.4611 104.886 20.4556C105.226 19.4501 105.566 18.3975 105.905 17.2977C106.276 16.1665 106.615 15.1453 106.924 14.2341C107.232 13.3229 107.464 12.6787 107.618 12.3017C107.773 11.8932 107.989 11.359 108.266 10.6991C108.544 10.0079 108.745 9.41084 108.868 8.90809C109.084 8.37392 109.316 7.76119 109.563 7.06991C109.81 6.37863 110.041 5.86017 110.257 5.51453L110.859 4.14768L109.794 3.20503C109.362 2.76512 109.146 2.34093 109.146 1.93244C109.146 1.49254 109.439 1.11548 110.026 0.801258C110.612 0.455618 111.261 0.219955 111.971 0.0942671C112.279 0.0314224 112.603 0 112.943 0C113.313 0 113.684 0 114.054 0C114.857 0 115.675 0.0314224 116.508 0.0942671C117.342 0.15711 118.036 0.235664 118.592 0.329931C118.931 0.392774 119.333 0.534172 119.796 0.754126C120.289 0.942656 120.752 1.16261 121.185 1.41398C121.648 1.66536 121.972 1.90102 122.157 2.12097C122.157 2.12097 122.203 2.18382 122.296 2.30951C122.419 2.40377 122.543 2.45091 122.666 2.45091C122.851 2.54517 123.16 2.89081 123.592 3.48782C124.055 4.05342 124.503 4.69757 124.935 5.42027C125.367 6.14297 125.63 6.78712 125.722 7.35271C125.815 7.82404 125.877 8.31108 125.907 8.81383C125.969 9.28515 126 9.74077 126 10.1807C125.969 10.8405 125.923 11.5004 125.861 12.1603C125.83 12.8201 125.753 13.5114 125.63 14.2341C125.537 14.894 125.352 15.6324 125.074 16.4493C124.796 17.2663 124.503 18.0361 124.194 18.7588C123.916 19.4815 123.654 20.0786 123.407 20.5499C123.191 21.0212 123.052 21.2569 122.99 21.2569C122.805 21.2569 122.697 21.304 122.666 21.3983C122.635 21.4925 122.62 21.6025 122.62 21.7282C122.589 22.011 122.419 22.4666 122.111 23.0951C121.833 23.6921 121.462 24.3519 120.999 25.0746C120.536 25.7659 120.058 26.4258 119.564 27.0542C119.07 27.6512 118.592 28.1068 118.129 28.4211C117.203 29.4266 116.107 30.2907 114.841 31.0134C113.576 31.7046 112.264 32.2231 110.906 32.5687C109.578 32.9458 108.328 33.1343 107.155 33.1343ZM107.109 30.3064C107.418 30.3064 107.927 30.2907 108.637 30.2592C109.378 30.1964 109.964 30.0707 110.396 29.8822C111.199 29.6622 112.14 29.238 113.221 28.6096C114.332 27.9497 115.335 27.1485 116.23 26.2058C117.218 25.1689 118.113 24.0848 118.916 22.9537C119.718 21.791 120.506 20.2357 121.277 18.2875C121.802 16.9992 122.188 15.6795 122.435 14.3284C122.713 12.9458 122.851 11.7203 122.851 10.652C122.851 8.73527 122.497 7.17989 121.787 5.98586C121.077 4.76041 120.151 3.94344 119.008 3.53496C118.576 3.34643 118.113 3.22074 117.619 3.1579C117.126 3.06363 116.663 3.0165 116.23 3.0165C115.922 3.0165 115.582 3.03221 115.212 3.06363C114.872 3.09505 114.656 3.14219 114.564 3.20503C114.317 3.20503 114.039 3.47211 113.73 4.00629C113.421 4.54046 113.128 5.20032 112.85 5.98586C112.603 6.77141 112.372 7.54124 112.156 8.29537C111.909 9.26944 111.677 10.0393 111.461 10.6049C111.245 11.1705 111.014 11.7518 110.767 12.3488C110.551 12.9144 110.273 13.7313 109.933 14.7997C109.501 15.6795 109.131 16.575 108.822 17.4863C108.513 18.3975 108.251 19.1987 108.035 19.89C107.85 20.5499 107.711 21.0055 107.618 21.2569C107.433 21.6654 107.232 22.2624 107.016 23.0479C106.8 23.802 106.6 24.619 106.414 25.4988C106.229 26.3786 106.075 27.1956 105.951 27.9497C105.859 28.7038 105.813 29.2694 105.813 29.6465C105.813 29.9293 105.951 30.1178 106.229 30.2121C106.507 30.2749 106.8 30.3064 107.109 30.3064Z" fill="#48A5C9"/>
</svg>
